<?xml version="1.0" encoding="utf-8"?>
<!-- Generator: Adobe Illustrator 16.0.0, SVG Export Plug-In . SVG Version: 6.00 Build 0)  -->
<!DOCTYPE svg PUBLIC "-//W3C//DTD SVG 1.1//EN" "http://www.w3.org/Graphics/SVG/1.1/DTD/svg11.dtd">
<svg version="1.1" id="Layer_1" xmlns="http://www.w3.org/2000/svg" xmlns:xlink="http://www.w3.org/1999/xlink" x="0px" y="0px"
	 width="3704.455px" height="235px" viewBox="0 0 3704.455 235" enable-background="new 0 0 3704.455 235" xml:space="preserve">
<g>
	<path fill="#EBF2F1" d="M1241.087,244.554l-1277.922-1.319v-36.406c0,0,638.564-211.028,836.564-151.028
		s162.03,84.875,282.03,131.875c30,11.75,78.844,19.733,148.471,15.868"/>
	<path fill="#EBF2F1" d="M1187.977,204c69.626,3.865,129.328-4.125,159.328-15.875c120-47,84.03-71.875,282.03-131.875
		s827.003,142.808,827.003,142.808L2456.273,245l-1268.297,0.004"/>
	<path fill="#EBF2F1" d="M3791.549,243.685l-1355.391-0.004c0,0-73.075-73.002,20.18-44.623
		c51.897,15.793,618.801-201.084,806.759-144.127c198,60,162.03,84.875,282.03,131.875c30,11.75,176.796,6.886,246.422,3.021"/>
</g>
</svg>
