<?xml version="1.0" encoding="utf-8"?>
<!-- Generator: Adobe Illustrator 16.0.0, SVG Export Plug-In . SVG Version: 6.00 Build 0)  -->
<!DOCTYPE svg PUBLIC "-//W3C//DTD SVG 1.1//EN" "http://www.w3.org/Graphics/SVG/1.1/DTD/svg11.dtd">
<svg version="1.1" id="Layer_1" xmlns="http://www.w3.org/2000/svg" xmlns:xlink="http://www.w3.org/1999/xlink" x="0px" y="0px"
	 width="3000px" height="235px" viewBox="0 0 3000 235" enable-background="new 0 0 3000 235" xml:space="preserve">
<path fill="#EBF2F1" stroke="#EBF2F1" stroke-miterlimit="10" d="M1204.5,146.786c-36,10.928-120.488-59.186-211.053-93.539
	c-90.564-34.354,44.837,78.86-105.065,93.697C738.48,161.782,703.851,90.047,573.465,60.001
	c-130.386-30.045,8.14,48.404-73.058,99.153s-250.479,30.397-245.794-18.006C259.298,92.744,54.81,25.571,82.918,63.828
	c28.108,38.258,33.641,35.124-23.354,53.865C2.569,136.434,0.5,113.778,0.5,113.778V234.5h1204V146.786z"/>
<path fill="#EBF2F1" stroke="#EBF2F1" stroke-miterlimit="10" d="M2416.303,155.909c-36,10.928-128.291-68.309-218.855-102.662
	c-90.564-34.354,44.838,78.86-105.064,93.697c-149.902,14.838-184.532-56.897-314.918-86.943
	c-130.386-30.045,8.14,48.404-73.058,99.153s-250.479,30.397-245.794-18.006c4.685-48.404-199.803-115.578-171.695-77.32
	c28.108,38.258,76.677,66.02,19.682,84.761c-56.995,18.74-102.1-1.803-102.1-1.803V234.5h1204L2416.303,155.909z"/>
<path fill="#EBF2F1" stroke="#EBF2F1" stroke-miterlimit="10" d="M2999.997,75.021c-15.307-5.606-31.946-10.736-50.532-15.02
	c-130.386-30.045,8.14,48.404-73.058,99.153s-250.479,30.397-245.794-18.006c4.685-48.404-199.803-115.578-171.695-77.32
	c28.108,38.258,76.678,66.02,19.682,84.761c-56.994,18.74-102.1-1.803-102.1-1.803V234.5H3000"/>
</svg>
